<svg xmlns="http://www.w3.org/2000/svg" width="389.6" height="296.1" viewBox="0 0 389.6 296.1">
  <!-- paket 9 — generated by questions/generator/figures.py; do not edit by hand.
       skematis: segitiga siku-siku ABD dan ABC pada alas AB, AC dan BD berpotongan di E, EF ⊥ AB; tidak ada ukuran yang dilabeli. -->
  <style>
    text { font-family: system-ui, -apple-system, "Segoe UI", Roboto, Arial, sans-serif; }
    .dim { font-size: 14px; font-weight: 600; fill: #3f4650; }
    .note { font-size: 13px; fill: #6b7280; }
    .tick { stroke: #6b7280; stroke-width: 1; }
    .pt { font-size: 15px; font-weight: 700; fill: #3f4650; }
    .ln { font-size: 14px; font-style: italic; fill: #6b7280; }
  </style>

  <line x1="40" y1="234.1" x2="349.6" y2="234.1" stroke="#1a5fb4" stroke-width="2" stroke-linecap="round"/>
  <line x1="40" y1="234.1" x2="40" y2="105.1" stroke="#1a5fb4" stroke-width="2" stroke-linecap="round"/>
  <line x1="349.6" y1="234.1" x2="349.6" y2="32" stroke="#1a5fb4" stroke-width="2" stroke-linecap="round"/>
  <line x1="40" y1="234.1" x2="349.6" y2="32" stroke="#1a5fb4" stroke-width="2" stroke-linecap="round"/>
  <line x1="349.6" y1="234.1" x2="40" y2="105.1" stroke="#1a5fb4" stroke-width="2" stroke-linecap="round"/>
  <line x1="160.62" y1="155.36" x2="160.62" y2="234.1" stroke="#9aa1ac" stroke-width="1.6" stroke-linecap="round" stroke-dasharray="5 4"/>
  <polyline points="53,234.1 53,221.1 40,221.1" fill="none" stroke="#3f4650" stroke-width="1.4"/>
  <polyline points="336.6,234.1 336.6,221.1 349.6,221.1" fill="none" stroke="#3f4650" stroke-width="1.4"/>
  <polyline points="170.62,234.1 170.62,224.1 160.62,224.1" fill="none" stroke="#3f4650" stroke-width="1.4"/>
  <circle cx="40" cy="234.1" r="3.2" fill="#3f4650"/>
  <text class="pt" x="23" y="252.1" text-anchor="middle">A</text>
  <circle cx="349.6" cy="234.1" r="3.2" fill="#3f4650"/>
  <text class="pt" x="366.6" y="252.1" text-anchor="middle">B</text>
  <circle cx="349.6" cy="32" r="3.2" fill="#3f4650"/>
  <text class="pt" x="364.6" y="26" text-anchor="middle">C</text>
  <circle cx="40" cy="105.1" r="3.2" fill="#3f4650"/>
  <text class="pt" x="25" y="99.1" text-anchor="middle">D</text>
  <circle cx="160.62" cy="155.36" r="3.2" fill="#3f4650"/>
  <text class="pt" x="160.62" y="142.36" text-anchor="middle">E</text>
  <circle cx="160.62" cy="234.1" r="3.2" fill="#3f4650"/>
  <text class="pt" x="162.62" y="258.1" text-anchor="middle">F</text>
  <text class="note" x="194.8" y="284.1" text-anchor="middle">Gambar tidak digambar menurut skala.</text>
</svg>
