<svg xmlns="http://www.w3.org/2000/svg" width="349.78" height="196.09" viewBox="0 0 349.78 196.09">
  <!-- 8-kuantitatif-024 — generated by questions/generator/figures.py; do not edit by hand.
       balok 16 x 9 x 7 cm, proyeksi miring 45°; skala 12.19 px per cm. -->
  <style>
    text { font-family: system-ui, -apple-system, "Segoe UI", Roboto, Arial, sans-serif; }
    .dim { font-size: 14px; font-weight: 600; fill: #3f4650; }
    .note { font-size: 13px; fill: #6b7280; }
    .tick { stroke: #6b7280; stroke-width: 1; }
  </style>

  <polygon points="60,62.78 98.78,24 293.78,24 255,62.78" fill="#eaf0fb" stroke="#1a5fb4" stroke-width="2"/>
  <polygon points="255,62.78 293.78,24 293.78,109.31 255,148.09" fill="#c9dcf7" stroke="#1a5fb4" stroke-width="2"/>
  <rect x="60" y="62.78" width="195" height="85.31" fill="#d6e4fa" stroke="#1a5fb4" stroke-width="2"/>
  <g stroke="#9aa1ac" stroke-width="1.5" stroke-dasharray="5 4" fill="none">
    <line x1="98.78" y1="109.31" x2="98.78" y2="24"/>
    <line x1="98.78" y1="109.31" x2="293.78" y2="109.31"/>
    <line x1="98.78" y1="109.31" x2="60" y2="148.09"/>
  </g>
  <line class="tick" x1="60" y1="164.09" x2="255" y2="164.09"/>
  <line class="tick" x1="60" y1="158.09" x2="60" y2="170.09"/>
  <line class="tick" x1="255" y1="158.09" x2="255" y2="170.09"/>
  <text class="dim" x="157.5" y="186.09" text-anchor="middle">16 cm</text>
  <line class="tick" x1="44" y1="62.78" x2="44" y2="148.09"/>
  <line class="tick" x1="38" y1="62.78" x2="50" y2="62.78"/>
  <line class="tick" x1="38" y1="148.09" x2="50" y2="148.09"/>
  <text class="dim" x="34" y="105.44" text-anchor="middle" transform="rotate(-90 34 105.44)">7 cm</text>
  <text class="dim" x="284.29" y="143.6" text-anchor="start">9 cm</text>
</svg>
