<svg xmlns="http://www.w3.org/2000/svg" width="466.8" height="342.44" viewBox="0 0 466.8 342.44">
  <!-- paket 10 — generated by questions/generator/figures.py; do not edit by hand.
       skematis: garis l ∥ m dipotong garis k dan garis n; sudut x, y, z hanya diberi nama, TIDAK diberi nilai, dan gambar sengaja tidak berskala. -->
  <style>
    text { font-family: system-ui, -apple-system, "Segoe UI", Roboto, Arial, sans-serif; }
    .dim { font-size: 14px; font-weight: 600; fill: #3f4650; }
    .note { font-size: 13px; fill: #6b7280; }
    .tick { stroke: #6b7280; stroke-width: 1; }
    .pt { font-size: 15px; font-weight: 700; fill: #3f4650; }
    .ln { font-size: 14px; font-style: italic; fill: #6b7280; }
  </style>

  <line x1="34" y1="248.94" x2="430.8" y2="248.94" stroke="#1a5fb4" stroke-width="2" stroke-linecap="round"/>
  <line x1="37.76" y1="304.44" x2="232.36" y2="32" stroke="#1a5fb4" stroke-width="2" stroke-linecap="round"/>
  <line x1="130.76" y1="304.44" x2="278.51" y2="97.59" stroke="#1a5fb4" stroke-width="2" stroke-linecap="round"/>
  <line x1="419.75" y1="300.41" x2="193.96" y2="40.75" stroke="#1a5fb4" stroke-width="2" stroke-linecap="round"/>
  <polyline points="113.2,189.7 122.45,185.88 121.83,195.86" fill="none" stroke="#1a5fb4" stroke-width="2" stroke-linecap="round" stroke-linejoin="round"/>
  <polyline points="206.2,189.7 215.45,185.88 214.83,195.86" fill="none" stroke="#1a5fb4" stroke-width="2" stroke-linecap="round" stroke-linejoin="round"/>
  <path d="M 93.09 226.97 A 27 27 0 0 0 50.4 248.94" fill="none" stroke="#3f4650" stroke-width="1.3"/>
  <text class="dim" x="58.18" y="216.6" text-anchor="middle">x°</text>
  <path d="M 402 248.94 A 27 27 0 0 0 357.28 228.57" fill="none" stroke="#3f4650" stroke-width="1.3"/>
  <text class="dim" x="392.41" y="215.72" text-anchor="middle">z°</text>
  <path d="M 276.62 100.23 A 24 24 0 0 0 246.92 101.65" fill="none" stroke="#3f4650" stroke-width="1.3"/>
  <text class="dim" x="260.86" y="86.81" text-anchor="middle">y°</text>
  <circle cx="77.4" cy="248.94" r="3.2" fill="#3f4650"/>
  <text class="pt" x="62.4" y="268.94" text-anchor="middle">P</text>
  <circle cx="170.4" cy="248.94" r="3.2" fill="#3f4650"/>
  <text class="pt" x="155.4" y="268.94" text-anchor="middle">Q</text>
  <circle cx="375" cy="248.94" r="3.2" fill="#3f4650"/>
  <text class="pt" x="390" y="268.94" text-anchor="middle">R</text>
  <circle cx="262.67" cy="119.76" r="3.2" fill="#3f4650"/>
  <text class="pt" x="279.67" y="133.76" text-anchor="middle">S</text>
  <circle cx="211.61" cy="61.04" r="3.2" fill="#3f4650"/>
  <text class="pt" x="211.61" y="47.04" text-anchor="middle">T</text>
  <text class="ln" x="441.8" y="241.94" text-anchor="middle">k</text>
  <text class="ln" x="242.36" y="30" text-anchor="middle">l</text>
  <text class="ln" x="290.51" y="97.59" text-anchor="middle">m</text>
  <text class="ln" x="180.96" y="38.75" text-anchor="middle">n</text>
  <text class="note" x="233.4" y="330.44" text-anchor="middle">Gambar tidak digambar menurut skala.</text>
</svg>
