<svg xmlns="http://www.w3.org/2000/svg" width="288.21" height="357.61" viewBox="0 0 288.21 357.61">
  <!-- 14-kuantitatif-024 — generated by questions/generator/figures.py; do not edit by hand.
       tabung (tinggi 10 cm) dengan kerucut (tinggi 9 cm) di atasnya, jari-jari bersama 7 cm; skala 13.16 px per cm. Volume total TIDAK dilabeli. -->
  <style>
    text { font-family: system-ui, -apple-system, "Segoe UI", Roboto, Arial, sans-serif; }
    .dim { font-size: 14px; font-weight: 600; fill: #3f4650; }
    .note { font-size: 13px; fill: #6b7280; }
    .tick { stroke: #6b7280; stroke-width: 1; }
  </style>

  <path d="M 116.11 30 L 24 148.42 A 92.11 39.61 0 0 0 208.21 148.42 Z" fill="#eaf0fb" stroke="#1a5fb4" stroke-width="2"/>
  <path d="M 24 148.42 A 92.11 39.61 0 0 1 208.21 148.42" fill="none" stroke="#9aa1ac" stroke-width="1.5" stroke-dasharray="5 4"/>
  <path d="M 24 148.42 L 24 280 A 92.11 39.61 0 0 0 208.21 280 L 208.21 148.42" fill="#d6e4fa" stroke="#1a5fb4" stroke-width="2"/>
  <line x1="116.11" y1="30" x2="116.11" y2="148.42" stroke="#6b7280" stroke-width="1.5" stroke-dasharray="5 4"/>
  <circle cx="116.11" cy="148.42" r="2.5" fill="#3f4650"/>
  <line class="tick" x1="116.11" y1="148.42" x2="208.21" y2="148.42" stroke="#3f4650"/>
  <line class="tick" x1="162.16" y1="282" x2="162.16" y2="327.61"/>
  <text class="dim" x="162.16" y="341.61" text-anchor="middle">7 cm</text>
  <line class="tick" x1="242.21" y1="30" x2="242.21" y2="148.42"/>
  <line class="tick" x1="236.21" y1="30" x2="248.21" y2="30"/>
  <line class="tick" x1="236.21" y1="148.42" x2="248.21" y2="148.42"/>
  <text class="dim" x="266.21" y="89.21" text-anchor="middle" transform="rotate(-90 266.21 89.21)">9 cm</text>
  <line class="tick" x1="242.21" y1="148.42" x2="242.21" y2="280"/>
  <line class="tick" x1="236.21" y1="148.42" x2="248.21" y2="148.42"/>
  <line class="tick" x1="236.21" y1="280" x2="248.21" y2="280"/>
  <text class="dim" x="266.21" y="214.21" text-anchor="middle" transform="rotate(-90 266.21 214.21)">10 cm</text>
</svg>
