<svg xmlns="http://www.w3.org/2000/svg" width="214" height="292.23" viewBox="0 0 214 292.23">
  <!-- 4-kuantitatif-025 — generated by questions/generator/figures.py; do not edit by hand.
       prisma tegak, alas segitiga siku-siku 12 x 9 cm, tinggi 20 cm, proyeksi miring 45°; skala 9.5 px per cm. Sisi miring alas TIDAK dilabeli. -->
  <style>
    text { font-family: system-ui, -apple-system, "Segoe UI", Roboto, Arial, sans-serif; }
    .dim { font-size: 14px; font-weight: 600; fill: #3f4650; }
    .note { font-size: 13px; fill: #6b7280; }
    .tick { stroke: #6b7280; stroke-width: 1; }
  </style>

  <polygon points="174,244.23 90.23,214 90.23,24 174,54.23" fill="#c9dcf7" stroke="#1a5fb4" stroke-width="2"/>
  <polygon points="60,54.23 174,54.23 90.23,24" fill="#eaf0fb" stroke="#1a5fb4" stroke-width="2"/>
  <rect x="60" y="54.23" width="114" height="190" fill="#d6e4fa" stroke="#1a5fb4" stroke-width="2"/>
  <line x1="60" y1="244.23" x2="90.23" y2="214" stroke="#9aa1ac" stroke-width="1.5" stroke-dasharray="5 4"/>
  <polyline points="71,54.23 78.78,46.45 67.78,46.45" fill="none" stroke="#3f4650" stroke-width="1.4"/>
  <line class="tick" x1="60" y1="260.23" x2="174" y2="260.23"/>
  <line class="tick" x1="60" y1="254.23" x2="60" y2="266.23"/>
  <line class="tick" x1="174" y1="254.23" x2="174" y2="266.23"/>
  <text class="dim" x="117" y="282.23" text-anchor="middle">12 cm</text>
  <line class="tick" x1="44" y1="54.23" x2="44" y2="244.23"/>
  <line class="tick" x1="38" y1="54.23" x2="50" y2="54.23"/>
  <line class="tick" x1="38" y1="244.23" x2="50" y2="244.23"/>
  <text class="dim" x="34" y="149.23" text-anchor="middle" transform="rotate(-90 34 149.23)">20 cm</text>
  <text class="dim" x="65.21" y="34.21" text-anchor="end">9 cm</text>
</svg>
